<?xml version="1.0" encoding="UTF-8"?><svg id="Capa_1" xmlns="http://www.w3.org/2000/svg" viewBox="0 0 101 22"><path d="M4.84,7.43l.9,3.21c.58,2.08,1,3.77,1.28,5.08,.04-.14,.74-2.53,2.1-7.16l.24-.84h4.61c.18,.64,.49,1.78,.93,3.42,.44,1.64,.85,3.26,1.24,4.86,.31-1.37,.79-3.13,1.41-5.27l.96-3.3h4.61l-4.94,14.05h-4.24c-1.01-3.41-1.78-6.2-2.31-8.38-.1,.46-.37,1.5-.82,3.13-.45,1.63-.96,3.38-1.54,5.25H4.84L.15,7.43H4.84Z"/><path d="M24.87,10.55c.65-1.14,1.57-2.03,2.75-2.66,1.18-.63,2.54-.95,4.08-.95s2.9,.32,4.07,.95c1.17,.63,2.08,1.52,2.74,2.66,.65,1.14,.98,2.43,.98,3.88s-.33,2.71-.98,3.85c-.65,1.14-1.57,2.02-2.76,2.65-1.19,.63-2.53,.95-4.04,.95s-2.9-.32-4.08-.95c-1.18-.63-2.1-1.52-2.75-2.65-.65-1.14-.98-2.42-.98-3.85s.33-2.74,.98-3.88Zm4.39,6.46c.62,.67,1.44,1.01,2.44,1.01s1.8-.34,2.43-1.01c.62-.67,.93-1.54,.93-2.61s-.31-1.91-.92-2.58c-.61-.66-1.43-1-2.44-1s-1.83,.33-2.45,1c-.62,.66-.93,1.52-.93,2.58s.31,1.93,.93,2.61Z"/><path d="M63.06,8.4c.95,.97,1.43,2.26,1.43,3.86v9.21h-4.33V13.31c0-.83-.21-1.47-.62-1.93-.42-.46-.94-.68-1.58-.68-.79,0-1.4,.26-1.84,.78-.44,.52-.65,1.21-.65,2.06v7.94h-4.26V13.31c0-.81-.21-1.45-.62-1.9-.42-.46-.98-.68-1.69-.68-.75,0-1.34,.26-1.76,.78-.43,.52-.64,1.2-.64,2.03v7.94h-4.35V7.43h4.01l.18,1.31c.44-.56,1.01-1,1.71-1.32,.7-.32,1.45-.48,2.24-.48,.99,0,1.89,.22,2.69,.67,.8,.45,1.4,1.05,1.79,1.81,.44-.79,1.05-1.4,1.84-1.83,.79-.43,1.7-.64,2.74-.64,1.52,0,2.76,.49,3.71,1.46Z"/><path d="M79.91,7.87c1.05,.62,1.87,1.5,2.46,2.65,.59,1.15,.89,2.45,.89,3.92s-.3,2.77-.89,3.89c-.59,1.12-1.41,2-2.46,2.62-1.05,.62-2.25,.93-3.6,.93-1.01,0-1.94-.18-2.78-.55-.84-.36-1.5-.88-1.98-1.55l-.26,1.69h-3.6V.11h4.35V8.46c.48-.48,1.08-.85,1.81-1.12,.73-.27,1.55-.4,2.46-.4,1.35,0,2.55,.31,3.6,.93Zm-2.02,9.11c.61-.65,.92-1.51,.92-2.58s-.3-1.91-.9-2.56c-.6-.65-1.41-.98-2.43-.98s-1.83,.32-2.46,.97c-.63,.64-.94,1.49-.94,2.55s.31,1.94,.93,2.6c.62,.66,1.45,.99,2.47,.99s1.8-.33,2.41-.98Z"/><path d="M86.24,10.55c.65-1.14,1.57-2.03,2.75-2.66,1.18-.63,2.54-.95,4.08-.95s2.9,.32,4.07,.95c1.17,.63,2.08,1.52,2.74,2.66,.65,1.14,.98,2.43,.98,3.88s-.33,2.71-.98,3.85c-.65,1.14-1.57,2.02-2.76,2.65-1.19,.63-2.53,.95-4.04,.95s-2.9-.32-4.08-.95c-1.18-.63-2.1-1.52-2.75-2.65-.65-1.14-.98-2.42-.98-3.85s.33-2.74,.98-3.88Zm4.39,6.46c.62,.67,1.44,1.01,2.44,1.01s1.8-.34,2.42-1.01c.62-.67,.93-1.54,.93-2.61s-.31-1.91-.92-2.58c-.61-.66-1.43-1-2.44-1s-1.83,.33-2.45,1c-.62,.66-.93,1.52-.93,2.58s.31,1.93,.93,2.61Z"/></svg>